<?xml version="1.0" encoding="UTF-8"?>
<svg width="700pt" height="700pt" version="1.1" viewBox="0 0 700 700" xmlns="http://www.w3.org/2000/svg">
 <path d="m332.54 0.42578c-95.715 8.8125-170.62 89.215-170.62 187.24v78.68h170.62v-47.781c-22.758-7.4844-39.512-28.781-39.512-53.902v-43.27c0-25.121 16.754-46.418 39.512-53.902zm35.035 0.035157-0.003906 67.062c22.707 7.5156 39.375 28.785 39.375 53.867v43.273c0 25.082-16.668 46.352-39.375 53.867v47.816h170.52v-78.684c0-97.988-74.855-178.34-170.52-187.2zm-17.57 98.984c-12.461 0-21.977 9.4844-21.977 21.941v43.273c0 12.461 9.5195 21.977 21.977 21.977 12.461 0 21.945-9.5195 21.945-21.977l-0.003906-43.27c0-12.461-9.4844-21.941-21.945-21.941zm-188.09 201.9v70.137c0 103.92 84.172 188.09 188.09 188.09s188.09-84.172 188.09-188.09v-70.137z"/>
</svg>
