<?xml version="1.0" encoding="UTF-8"?>
<svg width="700pt" height="700pt" version="1.1" viewBox="0 0 700 700" xmlns="http://www.w3.org/2000/svg">
 <path d="m279.93 443.33v70h-23.332c-12.883 0-23.336 10.453-23.336 23.332 0 12.879 10.453 23.332 23.336 23.332h186.66c12.879 0 23.332-10.453 23.332-23.332 0-12.879-10.453-23.332-23.332-23.332h-23.332v-70h167.67c23.332 0 42.324-18.996 42.324-42.328v-358.68c0-23.336-18.992-42.328-42.324-42.328h-475.34c-23.988 0-42.328 16.426-42.328 40.461v360.54c0 23.332 18.992 42.328 42.328 42.328zm46.668 0v70h46.664v-70zm-210-396.66v350h466.66v-350zm46.664 23.332c-12.879 0-23.332 10.453-23.332 23.332v233.33c0 12.883 10.453 23.336 23.332 23.336h373.33c12.883 0 23.336-10.453 23.336-23.336v-233.33c0-12.879-10.453-23.332-23.336-23.332z" fill-rule="evenodd"/>
</svg>
