<?xml version="1.0" encoding="UTF-8"?>
<svg width="700pt" height="700pt" version="1.1" viewBox="0 0 700 700" xmlns="http://www.w3.org/2000/svg">
 <path d="m146.48 508.37-29.055 29.055c-3.5 3.3242-7.875 5.0742-12.422 5.0742s-8.9219-1.75-12.426-5.0742c-6.8203-6.8281-6.8203-18.02 0-24.848l29.055-29.055c2.9727 4.5547 6.8203 9.2812 11.195 13.656 4.375 4.3711 9.1055 8.2188 13.652 11.191zm316.74-253.22-270.72 234.85s-20.305-2.8047-35-17.5c-14.867-14.699-17.5-35-17.5-35l235.02-270.9c6.4766 20.305 17.859 39.023 33.598 54.773 15.586 15.574 34.301 27.129 54.602 33.777zm-100.84 12.477c-6.8359-6.8359-17.91-6.8359-24.746 0l-17.5 17.5c-6.8359 6.8359-6.8359 17.91 0 24.746 3.418 3.418 7.8945 5.125 12.371 5.125s8.957-1.7109 12.375-5.1289l17.5-17.5c6.8359-6.832 6.8359-17.906 0-24.742zm145.3-145.28c32.164 32.164 64.156 50.801 85.227 60.789 29.293-41.008 25.84-98.207-10.988-135.04-36.828-36.828-94.027-40.289-135.03-10.996 9.9805 21.086 28.625 53.078 60.789 85.242zm-24.746 24.746c-30.352-30.352-49.918-60.5-62.07-83.613-27.77 40.852-23.668 96.883 12.562 133.11s92.27 40.332 133.11 12.57c-23.125-12.16-53.254-31.719-83.605-62.07z"/>
</svg>
